<?xml version="1.0" encoding="UTF-8" standalone="no"?>
<!DOCTYPE svg PUBLIC "-//W3C//DTD SVG 1.1//EN" "http://www.w3.org/Graphics/SVG/1.1/DTD/svg11.dtd">
<svg width="100%" height="100%" viewBox="0 0 200 200" version="1.1" xmlns="http://www.w3.org/2000/svg" xmlns:xlink="http://www.w3.org/1999/xlink" xml:space="preserve" xmlns:serif="http://www.serif.com/" style="fill-rule:evenodd;clip-rule:evenodd;stroke-linejoin:round;stroke-miterlimit:1.41421;">
    <g transform="matrix(3.33333,0,0,3.33333,0,0)">
        <path d="M38.914,0L6.5,0L6.5,60L53.5,60L53.5,14.586L38.914,0ZM17.5,14L27.5,14C28.052,14 28.5,14.447 28.5,15C28.5,15.553 28.052,16 27.5,16L17.5,16C16.948,16 16.5,15.553 16.5,15C16.5,14.447 16.948,14 17.5,14ZM42.5,48L17.5,48C16.948,48 16.5,47.553 16.5,47C16.5,46.447 16.948,46 17.5,46L42.5,46C43.052,46 43.5,46.447 43.5,47C43.5,47.553 43.052,48 42.5,48ZM42.5,40L17.5,40C16.948,40 16.5,39.553 16.5,39C16.5,38.447 16.948,38 17.5,38L42.5,38C43.052,38 43.5,38.447 43.5,39C43.5,39.553 43.052,40 42.5,40ZM42.5,32L17.5,32C16.948,32 16.5,31.553 16.5,31C16.5,30.447 16.948,30 17.5,30L42.5,30C43.052,30 43.5,30.447 43.5,31C43.5,31.553 43.052,32 42.5,32ZM42.5,24L17.5,24C16.948,24 16.5,23.553 16.5,23C16.5,22.447 16.948,22 17.5,22L42.5,22C43.052,22 43.5,22.447 43.5,23C43.5,23.553 43.052,24 42.5,24Z" style="fill:rgb(3,115,238);fill-rule:nonzero;"/>
    </g>
    <g transform="matrix(2.75199,0,0,2.75199,123.467,-33.9239)">
        <path d="M19.937,30L2.264,12.327L2.264,30L19.937,30Z" style="fill:rgb(83,210,248);"/>
    </g>
</svg>
