<?xml version="1.0" encoding="UTF-8" standalone="no"?>
<!DOCTYPE svg PUBLIC "-//W3C//DTD SVG 1.1//EN" "http://www.w3.org/Graphics/SVG/1.1/DTD/svg11.dtd">
<svg width="100%" height="100%" viewBox="0 0 200 200" version="1.1" xmlns="http://www.w3.org/2000/svg" xmlns:xlink="http://www.w3.org/1999/xlink" xml:space="preserve" xmlns:serif="http://www.serif.com/" style="fill-rule:evenodd;clip-rule:evenodd;stroke-linejoin:round;stroke-miterlimit:1.41421;">
    <g transform="matrix(0.651948,0,0,0.651948,0,0)">
        <path d="M302.93,149.794C308.491,143.678 307.954,134.304 301.731,128.862L164.63,8.898C158.407,3.456 148.43,3.57 142.338,9.155L4.771,135.258C-1.321,140.843 -1.62,150.205 4.109,156.16L7.558,159.752C13.28,165.707 22.529,166.417 28.203,161.333L38.484,152.126L38.484,286.918C38.484,295.188 45.185,301.883 53.449,301.883L75.56,301.883C83.824,301.883 90.525,295.188 90.525,286.918C90.525,286.918 90.525,219.799 90.525,191.166C90.525,187.799 91.862,184.569 94.244,182.188C96.625,179.807 99.854,178.469 103.222,178.469C116.554,178.469 137.395,178.469 150.727,178.469C154.095,178.469 157.324,179.807 159.706,182.188C162.087,184.569 163.425,187.799 163.425,191.166C163.425,219.799 163.425,286.918 163.425,286.918C163.306,295.182 169.219,301.877 177.483,301.877L261.322,301.877C269.586,301.877 276.287,295.182 276.287,286.912L276.287,154.024C276.287,154.024 279.127,156.512 282.63,159.591C286.127,162.664 293.472,160.2 299.033,154.078L302.93,149.794Z" style="fill:rgb(3,115,238);fill-rule:nonzero;"/>
    </g>
    <g transform="matrix(0.651948,0,0,0.651948,111.53,85.9539)">
        <circle cx="46.948" cy="70.101" r="25.082" style="fill:rgb(83,210,248);"/>
    </g>
</svg>
