<?xml version="1.0" encoding="UTF-8" standalone="no"?>
<!DOCTYPE svg PUBLIC "-//W3C//DTD SVG 1.1//EN" "http://www.w3.org/Graphics/SVG/1.1/DTD/svg11.dtd">
<svg width="100%" height="100%" viewBox="0 0 200 200" version="1.1" xmlns="http://www.w3.org/2000/svg" xmlns:xlink="http://www.w3.org/1999/xlink" xml:space="preserve" xmlns:serif="http://www.serif.com/" style="fill-rule:evenodd;clip-rule:evenodd;stroke-linejoin:round;stroke-miterlimit:1.41421;">
    <g id="Layer_1_4_" transform="matrix(4.25532,0,0,4.25532,0,0)">
        <path d="M44.732,23.195L40.204,23.194C38.954,23.195 37.939,24.208 37.937,25.458L37.937,44.622C37.937,45.874 38.954,46.888 40.204,46.888L44.732,46.888C45.984,46.888 47,45.874 47,44.622L47,25.462C47,24.21 45.984,23.195 44.732,23.195ZM42.927,44.521C42.201,45.248 41.024,45.248 40.298,44.521C39.572,43.794 39.572,42.619 40.298,41.893C41.024,41.165 42.202,41.165 42.927,41.893C43.652,42.618 43.652,43.794 42.927,44.521Z" style="fill:rgb(83,210,248);fill-rule:nonzero;"/>
        <path d="M29.078,9.795C29.275,6.906 30.047,5.444 30.316,2.591C30.47,0.965 28.767,0.112 25.669,0.112C22.571,0.112 21.371,2.885 21.021,3.83C20.247,5.922 21.021,12.815 21.021,16.224C21.021,18.91 16.216,20.384 10.718,20.393C3.155,20.408 0,18.6 0,23.345C0,24.987 1.013,26.318 2.265,26.317C1.013,26.317 -0.001,27.651 0,29.291C0,30.931 1.013,32.265 2.265,32.262C1.013,32.264 0.001,33.595 0,35.233C0,36.878 1.015,38.206 2.265,38.208C1.015,38.206 0,39.538 0.001,41.183C0.001,42.826 1.014,44.155 2.265,44.155C2.265,44.155 5.484,44.158 17.694,44.158C29.904,44.158 34.365,44.158 34.365,44.158C34.99,44.158 35.496,43.651 35.497,43.024L35.497,25.82C35.498,25.637 35.452,25.458 35.368,25.296C35.367,25.296 28.535,17.773 29.078,9.795Z" style="fill:rgb(3,115,238);fill-rule:nonzero;"/>
    </g>
</svg>
