<?xml version="1.0" encoding="UTF-8" standalone="no"?>
<!DOCTYPE svg PUBLIC "-//W3C//DTD SVG 1.1//EN" "http://www.w3.org/Graphics/SVG/1.1/DTD/svg11.dtd">
<svg width="100%" height="100%" viewBox="0 0 200 200" version="1.1" xmlns="http://www.w3.org/2000/svg" xmlns:xlink="http://www.w3.org/1999/xlink" xml:space="preserve" xmlns:serif="http://www.serif.com/" style="fill-rule:evenodd;clip-rule:evenodd;stroke-linejoin:round;stroke-miterlimit:1.41421;">
    <g transform="matrix(0.4888,0,0,0.4888,0,0)">
        <path d="M204.583,216.671C255.247,216.671 296.323,168.596 296.323,109.293C296.323,27.056 255.249,1.916 204.583,1.916C153.915,1.916 112.843,27.056 112.843,109.293C112.844,168.596 153.916,216.671 204.583,216.671Z" style="fill:rgb(255,45,96);fill-rule:nonzero;"/>
        <path d="M407.164,374.717L360.88,270.454C358.763,265.683 355.044,261.726 350.415,259.316L278.585,221.924C277.001,221.101 275.083,221.261 273.659,222.339C253.343,237.705 229.456,245.827 204.583,245.827C179.706,245.827 155.821,237.705 135.505,222.339C134.077,221.261 132.159,221.101 130.575,221.924L58.75,259.316C54.119,261.726 50.404,265.681 48.285,270.454L2.001,374.717C-1.19,381.905 -0.536,390.129 3.751,396.722C8.036,403.314 15.288,407.248 23.151,407.248L386.012,407.248C393.875,407.248 401.129,403.312 405.414,396.721C409.699,390.129 410.355,381.902 407.164,374.717Z" style="fill:rgb(248,189,78);fill-rule:nonzero;"/>
    </g>
</svg>
